<mxfile host="app.diagrams.net" modified="2024-03-07T06:51:15.407Z" agent="Mozilla/5.0 (Windows NT 10.0; Win64; x64) AppleWebKit/537.36 (KHTML, like Gecko) Chrome/122.0.0.0 Safari/537.36 Edg/122.0.0.0" etag="L_i1PNpu3o6FvvdfQ-bw" version="24.0.2" type="github">
  <diagram name="第 1 页" id="lH8ZwJvUGsAp_MbVumms">
    <mxGraphModel dx="1042" dy="569" grid="1" gridSize="10" guides="1" tooltips="1" connect="1" arrows="1" fold="1" page="1" pageScale="1" pageWidth="3300" pageHeight="4681" math="0" shadow="0">
      <root>
        <mxCell id="0" />
        <mxCell id="1" parent="0" />
        <mxCell id="4YB0RGbdnBPLQyk0ui07-11" value="Pool" style="swimlane;childLayout=stackLayout;resizeParent=1;resizeParentMax=0;startSize=20;html=1;" vertex="1" parent="1">
          <mxGeometry x="30" y="50" width="1720" height="660" as="geometry" />
        </mxCell>
        <mxCell id="4YB0RGbdnBPLQyk0ui07-12" value="网关" style="swimlane;startSize=20;html=1;fillColor=#d5e8d4;strokeColor=#82b366;" vertex="1" parent="4YB0RGbdnBPLQyk0ui07-11">
          <mxGeometry y="20" width="460" height="640" as="geometry" />
        </mxCell>
        <mxCell id="4YB0RGbdnBPLQyk0ui07-15" value="处理请求体body" style="rounded=1;whiteSpace=wrap;html=1;" vertex="1" parent="4YB0RGbdnBPLQyk0ui07-12">
          <mxGeometry x="50" y="40" width="110" height="60" as="geometry" />
        </mxCell>
        <mxCell id="4YB0RGbdnBPLQyk0ui07-17" value="xss/csrf处理" style="rounded=1;whiteSpace=wrap;html=1;" vertex="1" parent="4YB0RGbdnBPLQyk0ui07-12">
          <mxGeometry x="50" y="120" width="110" height="60" as="geometry" />
        </mxCell>
        <mxCell id="4YB0RGbdnBPLQyk0ui07-18" value="填充用户信息过滤器" style="rounded=1;whiteSpace=wrap;html=1;" vertex="1" parent="4YB0RGbdnBPLQyk0ui07-12">
          <mxGeometry x="50" y="520" width="130" height="70" as="geometry" />
        </mxCell>
        <mxCell id="4YB0RGbdnBPLQyk0ui07-26" value="认证过滤器" style="rounded=1;whiteSpace=wrap;html=1;" vertex="1" parent="4YB0RGbdnBPLQyk0ui07-12">
          <mxGeometry x="45" y="320" width="120" height="60" as="geometry" />
        </mxCell>
        <mxCell id="4YB0RGbdnBPLQyk0ui07-27" value="授权过滤器" style="rounded=1;whiteSpace=wrap;html=1;" vertex="1" parent="4YB0RGbdnBPLQyk0ui07-12">
          <mxGeometry x="45" y="430" width="120" height="70" as="geometry" />
        </mxCell>
        <mxCell id="4YB0RGbdnBPLQyk0ui07-28" value="跨域配置过滤器" style="rounded=1;whiteSpace=wrap;html=1;" vertex="1" parent="4YB0RGbdnBPLQyk0ui07-12">
          <mxGeometry x="50" y="210" width="120" height="70" as="geometry" />
        </mxCell>
        <mxCell id="4YB0RGbdnBPLQyk0ui07-13" value="Lane 2" style="swimlane;startSize=20;html=1;" vertex="1" parent="4YB0RGbdnBPLQyk0ui07-11">
          <mxGeometry x="460" y="20" width="240" height="640" as="geometry" />
        </mxCell>
        <mxCell id="4YB0RGbdnBPLQyk0ui07-14" value="Lane 3" style="swimlane;startSize=20;html=1;" vertex="1" parent="4YB0RGbdnBPLQyk0ui07-11">
          <mxGeometry x="700" y="20" width="1020" height="640" as="geometry" />
        </mxCell>
      </root>
    </mxGraphModel>
  </diagram>
</mxfile>
